<svg width="131" height="25" viewBox="0 0 131 25" fill="none" xmlns="http://www.w3.org/2000/svg">
<g clip-path="url(#clip0_3079_19029)">
<path d="M39.4851 4.13422C44.556 4.13422 48.0532 7.08432 48.0532 12.415V23.6131C48.0532 24.0679 47.8243 24.2932 47.3996 24.2932H42.9448C42.851 24.3062 42.7554 24.2975 42.6655 24.2679C42.5757 24.2383 42.494 24.1886 42.427 24.1227C42.36 24.0567 42.3095 23.9764 42.2794 23.888C42.2493 23.7995 42.2405 23.7054 42.2537 23.6131V12.2306C42.2537 10.3786 41.3294 9.28051 39.2936 9.28051C38.4231 9.27899 37.5655 9.48718 36.7956 9.88692C37.0625 10.6794 37.192 11.5105 37.1786 12.3453V23.6131C37.1786 24.0679 36.9496 24.2932 36.525 24.2932H32.0577C31.9639 24.3062 31.8683 24.2975 31.7784 24.2679C31.6885 24.2383 31.6069 24.1886 31.5399 24.1227C31.4729 24.0567 31.4224 23.9764 31.3923 23.888C31.3622 23.7995 31.3534 23.7054 31.3666 23.6131V12.2306C31.3666 10.2639 30.4423 9.24363 28.5605 9.24363C27.7915 9.2495 27.0274 9.36403 26.2915 9.58371V23.6131C26.3013 23.7048 26.2902 23.7975 26.2589 23.8844C26.2277 23.9713 26.1771 24.0502 26.1108 24.1154C26.0446 24.1806 25.9643 24.2304 25.876 24.2612C25.7877 24.292 25.6935 24.3029 25.6004 24.2932H21.1539C21.0601 24.3062 20.9645 24.2975 20.8746 24.2679C20.7848 24.2383 20.7031 24.1886 20.6361 24.1227C20.5691 24.0567 20.5186 23.9764 20.4885 23.888C20.4584 23.7995 20.4496 23.7054 20.4628 23.6131V6.44104C20.4558 6.26666 20.5036 6.0944 20.5997 5.94775C20.6958 5.80109 20.8356 5.68719 20.9999 5.62157C23.382 4.67231 25.9241 4.17195 28.4939 4.14652C30.3635 4.12144 32.1935 4.67779 33.723 5.73629C35.7589 4.66688 37.4117 4.13422 39.4851 4.13422ZM77.1383 24.8095C72.6086 24.8095 70.0357 22.0889 70.0357 17.4752V0.67605C70.0233 0.584404 70.0326 0.491198 70.0628 0.403652C70.093 0.316106 70.1432 0.23657 70.2096 0.171202C70.276 0.105834 70.3569 0.0563904 70.4458 0.0266997C70.5348 -0.00299108 70.6295 -0.0121318 70.7226 -1.45985e-05H75.2523C75.6687 -1.45985e-05 75.906 0.22534 75.906 0.680147V16.7582C75.906 18.6471 76.672 19.5157 78.1708 19.5157C78.5538 19.5157 78.9785 19.5157 79.3615 19.4788C79.455 19.4579 79.5523 19.4593 79.6451 19.483C79.7379 19.5067 79.8236 19.552 79.8949 19.615C79.9663 19.678 80.0213 19.7569 80.0552 19.8452C80.0892 19.9334 80.1012 20.0284 80.0901 20.1221V23.8999C80.0901 24.24 79.9361 24.5432 79.6738 24.5801C78.8372 24.7305 77.9887 24.8073 77.1383 24.8095ZM109.383 19.6673C109.729 19.6673 110.191 19.6304 110.632 19.5895C111.132 19.5157 111.361 19.7042 111.361 20.1549V23.8425C111.385 24.0117 111.343 24.1835 111.243 24.3234C111.143 24.4632 110.994 24.5608 110.824 24.5964C110.024 24.7262 109.215 24.7893 108.405 24.7849C103.95 24.7849 100.953 22.4044 100.953 17.5654V0.643271C100.953 0.233535 101.182 -1.45985e-05 101.644 -1.45985e-05H106.14C106.227 -0.0119096 106.316 -0.00501083 106.4 0.0202042C106.485 0.0454193 106.562 0.0883486 106.628 0.146021C106.694 0.203694 106.746 0.274733 106.781 0.354223C106.816 0.433713 106.833 0.519755 106.831 0.606395V4.13422H110.67C110.76 4.12313 110.852 4.13183 110.938 4.15969C111.024 4.18755 111.104 4.23389 111.17 4.29538C111.236 4.35687 111.287 4.43199 111.32 4.51535C111.353 4.5987 111.367 4.68823 111.361 4.77751V8.40777C111.367 8.49705 111.353 8.58658 111.32 8.66993C111.287 8.75329 111.236 8.82841 111.17 8.8899C111.104 8.95139 111.024 8.99773 110.938 9.02559C110.852 9.05346 110.76 9.06215 110.67 9.05106H106.831V16.877C106.81 18.7249 107.693 19.6673 109.383 19.6673ZM90.0738 4.13422C86.6599 4.13422 81.1434 5.16676 81.1434 14.4719C81.1434 23.777 86.3934 24.8095 90.0738 24.8095C93.7542 24.8095 96.1648 23.7893 98.1257 22.3142C98.2013 22.2632 98.2649 22.1969 98.3125 22.1198C98.36 22.0427 98.3903 21.9564 98.4013 21.8669C98.4123 21.7774 98.4039 21.6865 98.3764 21.6004C98.349 21.5144 98.3033 21.435 98.2423 21.3677L96.2439 18.7618C96.2068 18.6832 96.151 18.6146 96.0812 18.5618C96.0113 18.5091 95.9296 18.4737 95.8428 18.4588C95.7561 18.4439 95.667 18.4499 95.5831 18.4763C95.4993 18.5026 95.4231 18.5486 95.3612 18.6102C93.8912 19.4931 92.2039 19.9635 90.4818 19.9705C88.4459 19.9705 87.1803 18.9872 87.1803 17.0614V16.4591H98.0466C98.5087 16.4591 98.7377 16.2337 98.7377 15.8158V13.6975C98.7377 5.16676 93.4877 4.13422 90.0738 4.13422ZM93.0922 12.7018H87.1761V11.9233C87.1761 9.84595 88.3668 8.93633 90.1321 8.93633C91.8973 8.93633 93.0881 9.88282 93.0881 11.9233L93.0922 12.7018ZM59.0861 4.13422C55.6721 4.13422 50.1557 5.16676 50.1557 14.4719C50.1557 23.777 55.4057 24.8095 59.0861 24.8095C62.7665 24.8095 65.177 23.7893 67.138 22.3142C67.2136 22.2632 67.2772 22.1969 67.3248 22.1198C67.3723 22.0427 67.4026 21.9564 67.4136 21.8669C67.4246 21.7774 67.4162 21.6865 67.3887 21.6004C67.3613 21.5144 67.3156 21.435 67.2545 21.3677L65.2561 18.7618C65.2191 18.6832 65.1633 18.6146 65.0935 18.5618C65.0236 18.5091 64.9418 18.4737 64.8551 18.4588C64.7684 18.4439 64.6793 18.4499 64.5954 18.4763C64.5116 18.5026 64.4354 18.5486 64.3735 18.6102C62.9035 19.4931 61.2162 19.9635 59.4941 19.9705C57.4582 19.9705 56.1926 18.9872 56.1926 17.0614V16.4591H67.063C67.5252 16.4591 67.7541 16.2337 67.7541 15.8158V13.6975C67.75 5.16676 62.5 4.13422 59.0861 4.13422ZM62.1045 12.7018H56.2051V11.9233C56.2051 9.84595 57.3958 8.93633 59.161 8.93633C60.9263 8.93633 62.117 9.88282 62.117 11.9233L62.1045 12.7018ZM121.569 4.13422C118.156 4.13422 112.639 5.16676 112.639 14.4719C112.639 23.777 117.91 24.8095 121.569 24.8095C125.229 24.8095 127.66 23.7893 129.621 22.3142C129.697 22.2632 129.761 22.1969 129.808 22.1198C129.856 22.0427 129.886 21.9564 129.897 21.8669C129.908 21.7774 129.9 21.6865 129.872 21.6004C129.845 21.5144 129.799 21.435 129.738 21.3677L127.74 18.7618C127.702 18.6832 127.647 18.6146 127.577 18.5618C127.507 18.5091 127.425 18.4737 127.338 18.4588C127.252 18.4439 127.163 18.4499 127.079 18.4763C126.995 18.5026 126.919 18.5486 126.857 18.6102C125.389 19.4916 123.705 19.962 121.986 19.9705C119.95 19.9705 118.684 18.9872 118.684 17.0614V16.4591H129.555C130.017 16.4591 130.246 16.2337 130.246 15.8158V13.6975C130.25 5.16676 125 4.13422 121.569 4.13422ZM124.605 12.7018H118.688V11.9233C118.688 9.84595 119.879 8.93633 121.644 8.93633C123.41 8.93633 124.6 9.88282 124.6 11.9233L124.605 12.7018ZM9.2093 4.13422C6.30329 4.13422 0 5.68712 0 14.4719C0 23.5188 5.51642 24.8095 9.2093 24.8095C12.9022 24.8095 18.3686 23.5188 18.3686 14.4719C18.3811 5.68712 12.0737 4.13422 9.2093 4.13422ZM9.2093 19.6386C7.12763 19.6386 5.79537 17.59 5.79537 14.9881C5.79537 12.1446 7.36911 9.301 9.2093 9.301C11.0495 9.301 12.6232 12.1446 12.6232 14.9881C12.6066 17.5736 11.291 19.6427 9.19265 19.6427L9.2093 19.6386Z" fill="url(#paint0_linear_3079_19029)"/>
</g>
<defs>
<linearGradient id="paint0_linear_3079_19029" x1="65" y1="-6.00002" x2="65" y2="25" gradientUnits="userSpaceOnUse">
<stop stop-color="#F2DE9A"/>
<stop offset="0.475962" stop-color="#D5BA6D"/>
<stop offset="1" stop-color="#B69F66"/>
</linearGradient>
<clipPath id="clip0_3079_19029">
<rect width="130.25" height="24.8095" fill="white"/>
</clipPath>
</defs>
</svg>
